<?xml version="1.0" encoding="UTF-8"?>
<svg xmlns="http://www.w3.org/2000/svg" xmlns:xlink="http://www.w3.org/1999/xlink" viewBox="0 0 24 24">
<path stroke="currentColor" stroke-width="2" fill="none" stroke-linecap="round" stroke-linejoin="round" d="M 7.7 23.2 L 6.1 22.4 L 5.0 21.3 L 4.4 20.3 L 4.4 11.5 L 5.0 10.5 L 5.6 10.1 L 6.6 10.2 L 7.4 10.7 L 7.7 12.7 L 7.8 10.1 L 8.5 9.2 L 9.4 9.0 L 10.3 9.2 L 10.9 9.8 L 10.9 11.9 L 11.0 9.4 L 11.8 8.7 L 12.6 8.5 L 13.4 8.7 L 14.2 9.5 L 14.3 12.3 L 14.3 2.5 L 14.6 1.3 L 15.5 0.9 L 16.5 0.9 L 17.2 1.4 L 17.5 2.4 L 17.5 12.4 L 18.5 12.9 L 19.2 13.6 L 19.7 14.7 L 19.8 16.0 L 19.6 17.1 L 17.4 21.5 L 16.5 22.5 L 15.2 23.2 L 14.8 23.4 L 7.9 23.4 M 15.9 4.7 L 13.2 3.1 L 12.6 2.9 L 11.9 3.4 L 11.5 4.2 L 11.5 4.7 L 11.7 5.1 L 12.3 5.7 L 13.0 5.8 L 15.9 4.7 L 18.5 3.1 L 19.1 3.0 L 19.7 3.3 L 20.1 3.8 L 20.3 4.4 L 20.1 5.0 L 19.7 5.5 L 19.1 5.8 L 18.3 5.7 L 15.9 4.7"/>
</svg>
