<?xml version="1.0" encoding="UTF-8"?>
<svg xmlns="http://www.w3.org/2000/svg" xmlns:xlink="http://www.w3.org/1999/xlink" width="24px" height="24px" viewBox="0 0 24 24" version="1.1">
<g id="surface1">
<path style=" stroke:none;fill-rule:evenodd;fill:rgb(2.352941%,2.352941%,2.352941%);fill-opacity:1;" d="M 14.785156 0.617188 C 14.238281 0.933594 13.851562 1.5 13.75 2.128906 L 13.671875 2.621094 L 12.988281 2.574219 L 12.304688 2.53125 L 11.90625 2.78125 C 11.691406 2.917969 11.40625 3.207031 11.273438 3.421875 L 11.03125 3.816406 L 11.03125 4.34375 C 11.03125 5.355469 11.613281 6.074219 12.585938 6.257812 L 12.992188 6.335938 L 13.496094 6.1875 C 13.773438 6.105469 14.425781 5.871094 14.945312 5.664062 L 15.890625 5.292969 L 16.523438 5.554688 C 18.496094 6.367188 18.980469 6.4375 19.757812 6.027344 L 20.277344 5.75 L 20.503906 5.332031 L 20.726562 4.914062 L 20.726562 3.816406 L 20.484375 3.421875 C 20.351562 3.207031 20.066406 2.917969 19.847656 2.78125 L 19.453125 2.53125 L 18.769531 2.574219 L 18.085938 2.621094 L 18.023438 2.152344 C 17.941406 1.542969 17.511719 0.925781 16.957031 0.613281 L 16.511719 0.363281 L 15.863281 0.367188 L 15.210938 0.371094 L 14.785156 0.617188 M 15.433594 1.511719 C 14.941406 1.722656 14.785156 2.023438 14.792969 2.75 L 14.796875 3.332031 L 15.335938 3.660156 L 15.878906 3.992188 L 16.421875 3.660156 L 16.960938 3.332031 L 16.964844 2.75 C 16.96875 2.011719 16.8125 1.722656 16.296875 1.503906 C 15.816406 1.304688 15.910156 1.304688 15.433594 1.511719 M 12.511719 3.640625 C 12.363281 3.703125 12.1875 3.890625 12.121094 4.058594 L 12.007812 4.363281 L 12.113281 4.640625 C 12.167969 4.792969 12.304688 4.992188 12.414062 5.082031 L 12.609375 5.242188 L 13.0625 5.179688 C 13.3125 5.144531 13.78125 5 14.105469 4.859375 L 14.695312 4.601562 L 14.558594 4.4375 C 14.4375 4.292969 12.949219 3.503906 12.832031 3.523438 C 12.808594 3.527344 12.664062 3.582031 12.511719 3.640625 M 18.121094 3.886719 C 17.722656 4.089844 17.316406 4.332031 17.222656 4.425781 L 17.046875 4.597656 L 17.644531 4.859375 C 17.972656 5 18.460938 5.144531 18.726562 5.179688 L 19.210938 5.238281 L 19.445312 4.980469 L 19.675781 4.722656 L 19.675781 4.355469 C 19.675781 3.960938 19.480469 3.707031 19.089844 3.589844 L 18.847656 3.519531 L 18.121094 3.886719 M 14.210938 6.640625 L 13.695312 6.839844 L 13.695312 8.25 L 13.460938 8.125 C 13.332031 8.054688 12.945312 8 12.601562 8 L 11.976562 8 L 11.554688 8.199219 C 11.324219 8.308594 11.050781 8.527344 10.949219 8.679688 L 10.765625 8.960938 L 10.496094 8.785156 C 10.347656 8.6875 9.984375 8.574219 9.6875 8.535156 L 9.148438 8.460938 L 8.132812 8.734375 L 7.765625 9.183594 C 7.558594 9.429688 7.394531 9.699219 7.394531 9.785156 C 7.394531 9.980469 7.289062 9.972656 6.910156 9.757812 C 5.910156 9.183594 4.457031 9.839844 4.058594 11.042969 L 3.863281 11.621094 L 3.941406 20.183594 L 4.226562 20.890625 C 4.804688 22.332031 6.078125 23.433594 7.613281 23.824219 L 8.378906 24.015625 L 11.613281 23.976562 L 14.847656 23.933594 L 15.574219 23.644531 L 16.304688 23.355469 L 17.089844 22.554688 L 17.878906 21.757812 L 18.871094 19.816406 C 19.414062 18.75 19.953125 17.554688 20.066406 17.164062 L 20.269531 16.445312 L 20.214844 15.464844 L 20.164062 14.484375 L 19.851562 13.878906 C 19.535156 13.265625 19.003906 12.699219 18.394531 12.320312 L 18.0625 12.117188 L 18.0625 6.8125 L 17.726562 6.691406 C 17.542969 6.625 17.3125 6.535156 17.210938 6.496094 L 17.03125 6.421875 L 17.066406 9.644531 L 17.097656 12.863281 L 17.503906 13.035156 C 18.128906 13.292969 18.679688 13.816406 18.933594 14.390625 L 19.164062 14.914062 L 19.167969 15.621094 C 19.171875 16.65625 18.992188 17.175781 17.863281 19.417969 L 16.839844 21.441406 L 16.289062 21.929688 C 15.980469 22.195312 15.429688 22.53125 15.054688 22.667969 L 14.378906 22.921875 L 11.039062 22.886719 L 7.695312 22.847656 L 7.089844 22.527344 C 6.363281 22.136719 5.703125 21.46875 5.316406 20.726562 L 5.03125 20.183594 L 4.996094 15.804688 L 4.957031 11.425781 L 5.597656 10.667969 L 6.503906 10.667969 L 6.777344 10.957031 L 7.046875 11.246094 L 7.234375 12.628906 L 7.40625 12.738281 C 7.65625 12.894531 7.835938 12.871094 8.050781 12.65625 L 8.242188 12.46875 L 8.242188 11.523438 C 8.242188 9.996094 8.488281 9.574219 9.390625 9.574219 L 9.828125 9.574219 L 10.125 9.875 L 10.425781 10.171875 L 10.425781 11.953125 L 10.570312 12.097656 C 10.757812 12.285156 11.183594 12.285156 11.371094 12.097656 L 11.515625 11.953125 L 11.515625 9.710938 L 11.796875 9.382812 L 12.078125 9.058594 L 13.136719 9.058594 L 13.417969 9.382812 L 13.695312 9.710938 L 13.695312 12.46875 L 13.886719 12.65625 C 14.128906 12.898438 14.355469 12.898438 14.597656 12.65625 L 14.789062 12.46875 L 14.789062 9.445312 C 14.789062 7.785156 14.773438 6.429688 14.757812 6.433594 C 14.742188 6.4375 14.496094 6.53125 14.210938 6.640625 "/>
<path style=" stroke:none;fill-rule:evenodd;fill:rgb(98.431373%,98.431373%,98.431373%);fill-opacity:1;" d="M 0 12 L 0 24 L 4.089844 23.992188 L 8.183594 23.984375 L 7.515625 23.808594 C 6.0625 23.421875 4.789062 22.289062 4.226562 20.890625 L 3.941406 20.183594 L 3.863281 11.621094 L 4.058594 11.042969 C 4.457031 9.839844 5.910156 9.183594 6.910156 9.757812 C 7.289062 9.972656 7.394531 9.980469 7.394531 9.785156 C 7.394531 9.699219 7.558594 9.429688 7.765625 9.183594 L 8.132812 8.734375 L 9.148438 8.460938 L 9.6875 8.535156 C 9.984375 8.574219 10.347656 8.6875 10.496094 8.785156 L 10.765625 8.960938 L 10.949219 8.679688 C 11.050781 8.527344 11.324219 8.308594 11.554688 8.199219 L 11.976562 8 L 12.601562 8 C 12.945312 8 13.332031 8.054688 13.460938 8.125 L 13.695312 8.25 L 13.695312 6.839844 L 14.242188 6.636719 L 14.789062 6.4375 L 14.789062 12.46875 L 14.597656 12.65625 C 14.355469 12.898438 14.128906 12.898438 13.886719 12.65625 L 13.695312 12.46875 L 13.695312 9.710938 L 13.417969 9.382812 L 13.136719 9.058594 L 12.078125 9.058594 L 11.796875 9.382812 L 11.515625 9.710938 L 11.515625 11.953125 L 11.371094 12.097656 C 11.183594 12.285156 10.757812 12.285156 10.570312 12.097656 L 10.425781 11.953125 L 10.425781 10.171875 L 10.125 9.875 L 9.828125 9.574219 L 9.390625 9.574219 C 8.488281 9.574219 8.242188 9.996094 8.242188 11.523438 L 8.242188 12.46875 L 8.050781 12.65625 C 7.835938 12.871094 7.65625 12.894531 7.40625 12.738281 L 7.234375 12.628906 L 7.046875 11.246094 L 6.777344 10.957031 L 6.503906 10.667969 L 5.597656 10.667969 L 4.957031 11.425781 L 4.996094 15.804688 L 5.03125 20.183594 L 5.351562 20.789062 C 5.738281 21.515625 6.410156 22.171875 7.152344 22.5625 L 7.695312 22.847656 L 11.039062 22.886719 L 14.378906 22.921875 L 15.054688 22.667969 C 15.429688 22.53125 15.980469 22.195312 16.289062 21.929688 L 16.839844 21.441406 L 17.863281 19.417969 C 18.988281 17.183594 19.171875 16.65625 19.167969 15.636719 L 19.164062 14.945312 L 18.964844 14.445312 C 18.738281 13.882812 18.136719 13.296875 17.515625 13.039062 L 17.097656 12.863281 L 17.066406 9.644531 L 17.03125 6.421875 L 17.210938 6.496094 C 17.3125 6.535156 17.542969 6.625 17.726562 6.691406 L 18.0625 6.8125 L 18.0625 12.117188 L 18.394531 12.320312 C 19.003906 12.699219 19.535156 13.265625 19.851562 13.878906 L 20.164062 14.484375 L 20.214844 15.464844 L 20.269531 16.445312 L 20.066406 17.164062 C 19.953125 17.554688 19.414062 18.746094 18.871094 19.804688 L 17.878906 21.730469 L 17.285156 22.386719 C 16.59375 23.152344 15.945312 23.558594 15.027344 23.804688 L 14.363281 23.984375 L 19.210938 23.960938 L 24.0625 23.9375 L 24.089844 11.96875 L 24.121094 0 L 0 0 L 0 12 M 0.0585938 12.0625 C 0.0585938 18.660156 0.0742188 21.34375 0.0898438 18.019531 C 0.109375 14.699219 0.109375 9.300781 0.0898438 6.019531 C 0.0742188 2.742188 0.0585938 5.460938 0.0585938 12.0625 M 14.785156 0.617188 C 14.238281 0.933594 13.851562 1.5 13.75 2.128906 L 13.671875 2.621094 L 12.988281 2.574219 L 12.304688 2.53125 L 11.90625 2.78125 C 11.691406 2.917969 11.40625 3.207031 11.273438 3.421875 L 11.03125 3.816406 L 11.03125 4.34375 C 11.03125 5.355469 11.613281 6.074219 12.585938 6.257812 L 12.992188 6.335938 L 13.496094 6.1875 C 13.773438 6.105469 14.425781 5.871094 14.945312 5.664062 L 15.890625 5.292969 L 16.523438 5.554688 C 18.496094 6.367188 18.980469 6.4375 19.757812 6.027344 L 20.277344 5.75 L 20.503906 5.332031 L 20.726562 4.914062 L 20.726562 3.816406 L 20.484375 3.421875 C 20.351562 3.207031 20.066406 2.917969 19.847656 2.78125 L 19.453125 2.53125 L 18.769531 2.574219 L 18.085938 2.621094 L 18.023438 2.152344 C 17.941406 1.542969 17.511719 0.925781 16.957031 0.613281 L 16.511719 0.363281 L 15.863281 0.367188 L 15.210938 0.371094 L 14.785156 0.617188 M 15.433594 1.511719 C 14.941406 1.722656 14.785156 2.023438 14.792969 2.75 L 14.796875 3.332031 L 15.335938 3.660156 L 15.878906 3.992188 L 16.421875 3.660156 L 16.960938 3.332031 L 16.964844 2.75 C 16.96875 2.011719 16.8125 1.722656 16.296875 1.503906 C 15.816406 1.304688 15.910156 1.304688 15.433594 1.511719 M 12.511719 3.640625 C 12.363281 3.703125 12.1875 3.890625 12.121094 4.058594 L 12.007812 4.363281 L 12.113281 4.640625 C 12.167969 4.792969 12.304688 4.992188 12.414062 5.082031 L 12.609375 5.242188 L 13.0625 5.179688 C 13.3125 5.144531 13.78125 5 14.105469 4.859375 L 14.695312 4.601562 L 14.558594 4.4375 C 14.4375 4.292969 12.949219 3.503906 12.832031 3.523438 C 12.808594 3.527344 12.664062 3.582031 12.511719 3.640625 M 18.121094 3.886719 C 17.722656 4.089844 17.316406 4.332031 17.222656 4.425781 L 17.046875 4.597656 L 17.644531 4.859375 C 17.972656 5 18.460938 5.144531 18.726562 5.179688 L 19.210938 5.238281 L 19.445312 4.980469 L 19.675781 4.722656 L 19.675781 4.355469 C 19.675781 3.960938 19.480469 3.707031 19.089844 3.589844 L 18.847656 3.519531 L 18.121094 3.886719 "/>
</g>
</svg>
